<svg xmlns="http://www.w3.org/2000/svg" viewBox="0 0 53.76 65.17"><defs><style>.cls-1{fill:#179691;}</style></defs><g id="Слой_2" data-name="Слой 2"><g id="Слой_1-2" data-name="Слой 1"><path class="cls-1" d="M53.76,26.88a26.88,26.88,0,1,0-45,19.83L12.48,43A21.81,21.81,0,1,1,43.73,40l0,0L22.38,61.28l3.89,3.89L47.51,43.8A25.61,25.61,0,0,0,53.76,26.88Z"/><polygon class="cls-1" points="28.86 32.6 20.32 32.6 20.32 24.09 15.03 24.09 15.03 32.6 15.03 37.9 15.03 37.93 20.32 37.93 20.32 37.9 28.86 37.9 28.86 32.6"/><polygon class="cls-1" points="24.2 20.46 32.74 20.46 32.74 28.97 38.04 28.97 38.04 20.46 38.04 15.17 38.04 15.13 32.74 15.13 32.74 15.17 24.2 15.17 24.2 20.46"/></g></g></svg>