<svg width="132" height="135" viewBox="0 0 132 135" fill="none" xmlns="http://www.w3.org/2000/svg">
<path d="M52.3001 0C23.4461 0 0 23.4328 0 52.2705C0 81.1081 23.4461 104.541 52.3001 104.541C63.7167 104.541 74.268 100.866 82.8725 94.6441L123.347 135L132 126.352L92.0058 86.2847C99.8653 77.1326 104.6 65.254 104.6 52.2705C104.6 23.4328 81.154 0 52.3001 0ZM52.3001 6.14947C77.8252 6.14947 98.4472 26.7598 98.4472 52.2705C98.4472 77.7811 77.8252 98.3915 52.3001 98.3915C26.7749 98.3915 6.15295 77.7811 6.15295 52.2705C6.15295 26.7598 26.7749 6.14947 52.3001 6.14947Z" fill="#D4D4D4"/>
</svg>
