<?xml version="1.0" standalone="no"?>
<!DOCTYPE svg PUBLIC "-//W3C//DTD SVG 20010904//EN"
 "http://www.w3.org/TR/2001/REC-SVG-20010904/DTD/svg10.dtd">
<svg version="1.0" xmlns="http://www.w3.org/2000/svg"
 width="124.000000pt" height="124.000000pt" viewBox="0 0 124.000000 124.000000"
 preserveAspectRatio="xMidYMid meet">
<metadata>
Created by potrace 1.14, written by Peter Selinger 2001-2017
</metadata>
<g transform="translate(0.000000,124.000000) scale(0.100000,-0.100000)"
fill="#000000" stroke="none">
<path d="M539 1210 c-6 -4 -9 -57 -7 -131 l3 -124 248 0 247 1 0 -208 0 -208
103 0 102 0 0 337 0 338 -343 0 c-189 0 -347 -2 -353 -5z"/>
<path d="M7 683 c-3 -7 -2 -636 2 -663 1 -6 125 -10 351 -10 l350 0 0 133 0
132 -250 -1 -250 -2 0 209 0 209 -99 0 c-55 0 -102 -3 -104 -7z"/>
</g>
</svg>
